<?xml version="1.0" encoding="utf-8"?>
<!-- Generator: Adobe Illustrator 19.1.0, SVG Export Plug-In . SVG Version: 6.00 Build 0)  -->
<svg version="1.1" id="Layer_1" xmlns="http://www.w3.org/2000/svg" xmlns:xlink="http://www.w3.org/1999/xlink" x="0px" y="0px"
	 viewBox="0 0 1200 1200" enable-background="new 0 0 1200 1200" xml:space="preserve">
<g>
	<circle fill="#2A1540" cx="600" cy="600" r="550"/>
	<g>
		<path fill="#C4E9FB" d="M606.792,732.735c-118.743,0-230.574-57.624-299.152-154.144c-1.961-2.763-1.961-6.447,0-9.211
			c68.575-96.514,180.407-154.138,299.152-154.138c118.744,0,230.577,57.624,299.152,154.138c1.961,2.764,1.961,6.448,0,9.211
			C837.366,675.111,725.534,732.735,606.792,732.735z M324.138,573.986c65.816,89.504,171.041,142.762,282.653,142.762
			c111.611,0,216.837-53.259,282.653-142.762c-65.814-89.504-171.039-142.757-282.653-142.757
			C495.178,431.229,389.951,484.481,324.138,573.986z"/>
		<path fill="#C4E9FB" d="M606.792,670.089c-53.409,0-96.86-43.11-96.86-96.103c0-52.987,43.452-96.098,96.86-96.098
			c53.409,0,96.859,43.111,96.859,96.098C703.651,626.979,660.2,670.089,606.792,670.089z M606.792,493.875
			c-44.524,0-80.747,35.939-80.747,80.111c0,44.177,36.223,80.116,80.747,80.116c44.523,0,80.746-35.939,80.746-80.116
			C687.538,529.814,651.315,493.875,606.792,493.875z"/>
		<g>
			<ellipse fill="#C4E9FB" cx="606.792" cy="573.987" rx="58.001" ry="57.546"/>
			<path fill="#C4E9FB" d="M606.792,639.525c-36.425,0-66.058-29.402-66.058-65.539c0-36.137,29.633-65.54,66.058-65.54
				c36.425,0,66.057,29.403,66.057,65.54C672.849,610.123,643.216,639.525,606.792,639.525z M606.792,524.433
				c-27.54,0-49.945,22.232-49.945,49.553c0,27.322,22.405,49.553,49.945,49.553c27.539,0,49.944-22.231,49.944-49.553
				C656.736,546.665,634.331,524.433,606.792,524.433z"/>
		</g>
		<g>
			<g>
				<path fill="#C4E9FB" d="M869.951,430.662c-4.45,0-8.056-3.58-8.056-7.994V320.887H761.101c-4.45,0-8.057-3.579-8.057-7.993
					c0-4.413,3.606-7.994,8.057-7.994h108.85c4.45,0,8.057,3.581,8.057,7.994v109.774
					C878.008,427.081,874.401,430.662,869.951,430.662z"/>
				<path fill="#C4E9FB" d="M343.635,430.662c-4.451,0-8.057-3.58-8.057-7.994V312.894c0-4.413,3.606-7.994,8.057-7.994h108.849
					c4.451,0,8.057,3.581,8.057,7.994c0,4.414-3.606,7.993-8.057,7.993H351.691v101.781
					C351.691,427.081,348.085,430.662,343.635,430.662z"/>
			</g>
			<g>
				<path fill="#C4E9FB" d="M452.484,843.076H343.635c-4.451,0-8.057-3.58-8.057-7.994V725.303c0-4.413,3.606-7.993,8.057-7.993
					c4.45,0,8.056,3.58,8.056,7.993v101.786h100.793c4.451,0,8.057,3.58,8.057,7.993
					C460.541,839.496,456.935,843.076,452.484,843.076z"/>
				<path fill="#C4E9FB" d="M869.951,843.076h-108.85c-4.45,0-8.057-3.58-8.057-7.994c0-4.413,3.606-7.993,8.057-7.993h100.794
					V725.303c0-4.413,3.606-7.993,8.056-7.993c4.45,0,8.057,3.58,8.057,7.993v109.779
					C878.008,839.496,874.401,843.076,869.951,843.076z"/>
			</g>
		</g>
		<g>
			<path fill="#C4E9FB" d="M606.792,807.667c-4.451,0-8.057-3.58-8.057-7.993V696.936c0-4.413,3.606-7.994,8.057-7.994
				c4.45,0,8.056,3.58,8.056,7.994v102.738C614.848,804.087,611.242,807.667,606.792,807.667z"/>
			<path fill="#C4E9FB" d="M606.792,459.029c-4.451,0-8.057-3.58-8.057-7.993V348.297c0-4.413,3.606-7.994,8.057-7.994
				c4.45,0,8.056,3.58,8.056,7.994v102.738C614.848,455.448,611.242,459.029,606.792,459.029z"/>
		</g>
		<g>
			<path fill="#C4E9FB" d="M482.872,581.979H379.32c-4.451,0-8.057-3.58-8.057-7.993c0-4.413,3.606-7.994,8.057-7.994h103.552
				c4.451,0,8.057,3.58,8.057,7.994C490.928,578.399,487.323,581.979,482.872,581.979z"/>
			<path fill="#C4E9FB" d="M834.266,581.979H730.714c-4.451,0-8.057-3.58-8.057-7.993c0-4.413,3.606-7.994,8.057-7.994h103.552
				c4.45,0,8.057,3.58,8.057,7.994C842.323,578.399,838.716,581.979,834.266,581.979z"/>
		</g>
	</g>
</g>
</svg>
